<svg xmlns="http://www.w3.org/2000/svg" width="56.984" height="26.118" viewBox="0 0 56.984 26.118">
  <path id="icon-infinite" d="M12.584,39.118A11.756,11.756,0,0,1,3.621,35.23,13.159,13.159,0,0,1,0,25.94,12.721,12.721,0,0,1,3.651,16.8,11.913,11.913,0,0,1,12.584,13a12.142,12.142,0,0,1,4.125.712,9.825,9.825,0,0,1,3.532,2.2l5.52,5.342-2.493,2.493L17.986,18.58a6.331,6.331,0,0,0-2.463-1.543,9.055,9.055,0,0,0-2.938-.475,8.482,8.482,0,0,0-6.411,2.76A9.29,9.29,0,0,0,3.562,25.94a9.739,9.739,0,0,0,2.582,6.767,8.334,8.334,0,0,0,6.44,2.849,8.873,8.873,0,0,0,2.879-.475A7.262,7.262,0,0,0,17.986,33.6L36.743,15.909a9.825,9.825,0,0,1,3.532-2.2A12.373,12.373,0,0,1,53.334,16.8a12.721,12.721,0,0,1,3.651,9.141,13.1,13.1,0,0,1-3.651,9.29,11.849,11.849,0,0,1-8.993,3.888,12.7,12.7,0,0,1-4.1-.683,8.93,8.93,0,0,1-3.5-2.167l-5.4-5.342,2.493-2.493L39,33.6a6.124,6.124,0,0,0,2.434,1.484,9.14,9.14,0,0,0,2.909.475,8.424,8.424,0,0,0,6.47-2.849,9.677,9.677,0,0,0,2.612-6.767,9.234,9.234,0,0,0-2.641-6.618,8.576,8.576,0,0,0-6.44-2.76,7.984,7.984,0,0,0-2.879.534A7.41,7.41,0,0,0,39,18.639L20.241,36.328a9.836,9.836,0,0,1-3.562,2.107A12.7,12.7,0,0,1,12.584,39.118Z" transform="translate(0 -13)" fill="#ff871e"/>
</svg>
