<svg xmlns="http://www.w3.org/2000/svg" width="53" height="53" viewBox="0 0 53 53">
  <g id="icon-play-podcast-o" transform="translate(-595 -856)">
    <circle id="Ellipse_62" data-name="Ellipse 62" cx="14" cy="14" r="14" transform="translate(607 868)" fill="#fff"/>
    <path id="play_circle_FILL1_wght400_GRAD0_opsz48" d="M24.074,22.881V38.119A1.94,1.94,0,0,0,25.1,39.908a1.78,1.78,0,0,0,2.021-.066l11.991-7.685a1.943,1.943,0,0,0,0-3.313L27.121,21.159a1.78,1.78,0,0,0-2.021-.066,1.94,1.94,0,0,0-1.027,1.789ZM30.5,57a25.641,25.641,0,0,1-10.269-2.087A26.7,26.7,0,0,1,6.087,40.769a26.308,26.308,0,0,1,0-20.538A26.7,26.7,0,0,1,20.231,6.087a26.308,26.308,0,0,1,20.538,0A26.7,26.7,0,0,1,54.913,20.231a26.308,26.308,0,0,1,0,20.538A26.7,26.7,0,0,1,40.769,54.913,25.641,25.641,0,0,1,30.5,57Z" transform="translate(591 852)" fill="#ff4703"/>
  </g>
</svg>
