<svg xmlns="http://www.w3.org/2000/svg" width="31.58" height="37.6" viewBox="0 0 31.58 37.6">
  <path id="icon-fly" d="M32.55,42.8a.616.616,0,0,1-.35-.1.893.893,0,0,1-.25-.25l-5-8.45h-6.3a1.538,1.538,0,0,1-1.5-1.5,1.415,1.415,0,0,1,.45-1.075A1.481,1.481,0,0,1,20.65,31h6.3l5-8.45a.8.8,0,0,1,.275-.25.744.744,0,0,1,.375-.1.556.556,0,0,1,.5.225.669.669,0,0,1,.05.575L30.8,31h6.6l1.3-1.75a.952.952,0,0,1,.25-.175A.59.59,0,0,1,39.2,29a.556.556,0,0,1,.5.225.574.574,0,0,1,.05.525l-.8,2.75.8,2.75a.574.574,0,0,1-.05.525.556.556,0,0,1-.5.225.59.59,0,0,1-.25-.075.952.952,0,0,1-.25-.175L37.4,34H30.8l2.35,8a.615.615,0,0,1-.075.575A.624.624,0,0,1,32.55,42.8ZM15.4,25.8a.556.556,0,0,1-.5-.225A.669.669,0,0,1,14.85,25l2.35-8H10.6L9.3,18.75a.952.952,0,0,1-.25.175A.59.59,0,0,1,8.8,19a.556.556,0,0,1-.5-.225.574.574,0,0,1-.05-.525l.8-2.75-.8-2.75a.574.574,0,0,1,.05-.525A.556.556,0,0,1,8.8,12a.59.59,0,0,1,.25.075.952.952,0,0,1,.25.175L10.6,14h6.6L14.85,6a.615.615,0,0,1,.075-.575A.624.624,0,0,1,15.45,5.2a.616.616,0,0,1,.35.1.893.893,0,0,1,.25.25l5,8.45h6.3a1.454,1.454,0,0,1,1.5,1.5,1.481,1.481,0,0,1-.425,1.05A1.415,1.415,0,0,1,27.35,17h-6.3l-5,8.45a.8.8,0,0,1-.275.25.744.744,0,0,1-.375.1Z" transform="translate(-8.21 -5.2)" fill="#ff871e"/>
</svg>
