<svg xmlns="http://www.w3.org/2000/svg" width="31" height="31" viewBox="0 0 31 31">
  <g id="icon-phone-footer" transform="translate(-968 -5582)">
    <circle id="Ellipse_8" data-name="Ellipse 8" cx="15.5" cy="15.5" r="15.5" transform="translate(968 5582)" fill="#f4f4f5"/>
    <path id="phone_iphone_FILL1_wght400_GRAD0_opsz48" d="M10.967,16.183A.991.991,0,0,1,10,15.216V2.967a.928.928,0,0,1,.29-.677A.928.928,0,0,1,10.967,2h7.091a.928.928,0,0,1,.677.29.928.928,0,0,1,.29.677V15.216a.991.991,0,0,1-.967.967Zm3.546-1.209a.469.469,0,1,0-.347-.137A.47.47,0,0,0,14.513,14.974ZM10.967,12.8h7.091V4.417H10.967Z" transform="translate(969 5588)"/>
  </g>
</svg>
