<svg xmlns="http://www.w3.org/2000/svg" width="36.309" height="35.683" viewBox="0 0 36.309 35.683">
  <path id="icon-world-search" d="M20.881,39.683a17.175,17.175,0,0,1-6.61-1.652,18.144,18.144,0,0,1-5.359-3.863,17.964,17.964,0,0,1-3.6-5.56A17.937,17.937,0,0,1,5.407,14.9a17.836,17.836,0,0,1,9.49-9.49A17.4,17.4,0,0,1,21.864,4,17.241,17.241,0,0,1,33.431,8.2a17.455,17.455,0,0,1,6.029,10.54H36.736a15.177,15.177,0,0,0-3.171-6.7,14.935,14.935,0,0,0-6.029-4.421v.8a3.887,3.887,0,0,1-1.072,2.724,3.446,3.446,0,0,1-2.635,1.161H19.944v3.885a1.544,1.544,0,0,1-.6,1.25,2.1,2.1,0,0,1-1.362.491H14.272v3.93h4.913v5.583H16.192L7.082,18.336A12.549,12.549,0,0,0,6.769,20.1a17.279,17.279,0,0,0-.089,1.764A14.773,14.773,0,0,0,10.744,32.27,14.5,14.5,0,0,0,20.881,37Zm17.507-1.161L32.4,32.538a7.46,7.46,0,0,1-2.032,1.027,7.22,7.22,0,0,1-2.255.357,7.548,7.548,0,0,1-7.592-7.592,7.548,7.548,0,0,1,7.592-7.592,7.548,7.548,0,0,1,7.592,7.592,6.833,6.833,0,0,1-.38,2.255,9.9,9.9,0,0,1-1,2.077l5.984,5.94Zm-10.272-7.28a4.88,4.88,0,0,0,4.913-4.913,4.926,4.926,0,0,0-8.4-3.483,4.96,4.96,0,0,0,0,6.967A4.74,4.74,0,0,0,28.116,31.243Z" transform="translate(-4 -4)" fill="#ff871e"/>
</svg>
