<svg xmlns="http://www.w3.org/2000/svg" width="25.132" height="17.784" viewBox="0 0 25.132 17.784">
  <g id="icon-youtube-c" transform="translate(0 -67.393)">
    <path id="Path_1" data-name="Path 1" d="M19.912,67.393H5.22A5.22,5.22,0,0,0,0,72.613v7.345a5.22,5.22,0,0,0,5.22,5.22H19.912a5.22,5.22,0,0,0,5.22-5.22V72.613A5.22,5.22,0,0,0,19.912,67.393Zm-3.53,9.249L9.51,79.92a.276.276,0,0,1-.395-.249v-6.76a.276.276,0,0,1,.4-.246l6.872,3.483A.276.276,0,0,1,16.382,76.642Z" transform="translate(0 0)" fill="#f61c0d"/>
  </g>
</svg>
