<svg xmlns="http://www.w3.org/2000/svg" width="71.936" height="71.936" viewBox="0 0 71.936 71.936">
  <g id="icon-checkout-confirmed" transform="translate(-657 -289)">
    <circle id="Ellipse_64" data-name="Ellipse 64" cx="29" cy="29" r="29" transform="translate(664 296)" fill="#fff"/>
    <path id="check_circle_FILL1_wght400_GRAD0_opsz48_1_" data-name="check_circle_FILL1_wght400_GRAD0_opsz48 (1)" d="M34.663,48.151l-8.812-8.812a2.822,2.822,0,0,0-3.956,0,2.892,2.892,0,0,0-.9,2.113,2.745,2.745,0,0,0,.809,2.023l10.97,10.97a2.838,2.838,0,0,0,3.777,0L58.132,32.864a2.691,2.691,0,0,0,.809-1.978,2.843,2.843,0,0,0-.9-2.068,2.745,2.745,0,0,0-2.023-.809,2.892,2.892,0,0,0-2.113.9Zm5.305,27.785a36.481,36.481,0,0,1-14.207-2.743A34.812,34.812,0,0,1,6.743,54.175,36.481,36.481,0,0,1,4,39.968,36.248,36.248,0,0,1,6.743,25.851a35.1,35.1,0,0,1,7.6-11.42A35.859,35.859,0,0,1,39.968,4,35.68,35.68,0,0,1,75.936,39.968,35.859,35.859,0,0,1,65.505,65.6a35.1,35.1,0,0,1-11.42,7.6A36.248,36.248,0,0,1,39.968,75.936Z" transform="translate(653 285)" fill="#ff871e"/>
  </g>
</svg>
