<svg xmlns="http://www.w3.org/2000/svg" width="37" height="28.885" viewBox="0 0 37 28.885">
  <path id="icon-insights" d="M4.943,35.035a2.836,2.836,0,0,1-2.081-.862,2.944,2.944,0,0,1,0-4.162,2.836,2.836,0,0,1,2.081-.862q.21,0,.42.021a4.009,4.009,0,0,1,.547.105l8.409-8.409a4.009,4.009,0,0,1-.105-.547q-.021-.21-.021-.42a2.943,2.943,0,0,1,5.024-2.081A2.836,2.836,0,0,1,20.08,19.9q0,.084-.126.967l4.625,4.625a4.009,4.009,0,0,1,.547-.105q.21-.021.42-.021t.42.021a4.009,4.009,0,0,1,.547.105l6.727-6.727a4.009,4.009,0,0,1-.105-.547q-.021-.21-.021-.42a2.943,2.943,0,1,1,2.943,2.943q-.21,0-.42-.021a4.009,4.009,0,0,1-.547-.105l-6.727,6.727a4.009,4.009,0,0,1,.105.547q.021.21.021.42a2.943,2.943,0,1,1-5.886,0q0-.21.021-.42a4.009,4.009,0,0,1,.105-.547L18.1,22.716a4.009,4.009,0,0,1-.547.105q-.21.021-.42.021-.084,0-.967-.126L7.76,31.125a4.009,4.009,0,0,1,.105.547q.021.21.021.42a2.836,2.836,0,0,1-.862,2.081A2.836,2.836,0,0,1,4.943,35.035Zm2.1-18.584L6.2,14.6l-1.85-.841,1.85-.841.841-1.85.841,1.85,1.85.841-1.85.841Zm18.5-2.144-1.3-2.775-2.775-1.3,2.775-1.3,1.3-2.775,1.3,2.775,2.775,1.3-2.775,1.3Z" transform="translate(-2 -6.15)" fill="#ff871e"/>
</svg>
