<svg xmlns="http://www.w3.org/2000/svg" width="42.35" height="35.15" viewBox="0 0 42.35 35.15">
  <path id="icon-learning" d="M23.95,41.55a3.576,3.576,0,0,1-.75-.075,2.443,2.443,0,0,1-.7-.275L11,34.9a3.094,3.094,0,0,1-1.125-1.1,2.929,2.929,0,0,1-.425-1.55V22.05L4.4,19.3a1.231,1.231,0,0,1-.575-.55,1.695,1.695,0,0,1,0-1.5A1.231,1.231,0,0,1,4.4,16.7L22.5,6.8a3.165,3.165,0,0,1,.7-.3,2.863,2.863,0,0,1,1.5,0,3.164,3.164,0,0,1,.7.3L45.2,17.55a1.721,1.721,0,0,1,.6.6,1.487,1.487,0,0,1,.2.75V32.35a1.5,1.5,0,1,1-3,0V19.75l-4.55,2.3v10.2a2.929,2.929,0,0,1-.425,1.55A3.094,3.094,0,0,1,36.9,34.9L25.4,41.2a2.443,2.443,0,0,1-.7.275,3.576,3.576,0,0,1-.75.075Zm0-14.95L39.7,18,23.95,9.55,8.3,18Zm0,12,11.5-6.35v-8.4L25.4,29.25a2.443,2.443,0,0,1-.7.275,3.576,3.576,0,0,1-.75.075,3.23,3.23,0,0,1-.725-.075,2.506,2.506,0,0,1-.675-.275l-10.1-5.5v8.5ZM24,26.6ZM23.95,31.1ZM23.95,31.1Z" transform="translate(-3.65 -6.4)" fill="#ff871e"/>
</svg>
