<svg xmlns="http://www.w3.org/2000/svg" width="23.171" height="30.412" viewBox="0 0 23.171 30.412">
  <path id="icon-unlock" d="M10.172,12.354h14.12V8.879a4.537,4.537,0,0,0-1.376-3.331,4.72,4.72,0,0,0-6.662,0,4.537,4.537,0,0,0-1.376,3.331H12.707a6.632,6.632,0,0,1,2.009-4.869A6.632,6.632,0,0,1,19.585,2a6.632,6.632,0,0,1,4.869,2.009,6.632,6.632,0,0,1,2.009,4.869v3.476H29a2.163,2.163,0,0,1,2.172,2.172V30.239A2.163,2.163,0,0,1,29,32.411H10.172A2.163,2.163,0,0,1,8,30.239V14.527a2.163,2.163,0,0,1,2.172-2.172Zm0,17.885H29V14.527H10.172Zm9.413-5.069a2.718,2.718,0,0,0,1.973-.8,2.587,2.587,0,0,0,.815-1.919,2.85,2.85,0,0,0-.815-1.973,2.638,2.638,0,0,0-3.946,0,2.85,2.85,0,0,0-.815,1.973,2.587,2.587,0,0,0,.815,1.919A2.718,2.718,0,0,0,19.585,25.171Zm-9.413,5.069v0Z" transform="translate(-8 -2)"/>
</svg>
